PathFileType	4	(X/Y/Z)	/Users/itak/Documents/Research/Walk-IL/dataset/trc/00169_00008.trc
DataRate	CameraRate	NumFrames	NumMarkers	Units	OrigDataRate	OrigDataStartFrame	OrigNumFrames
100.000000	100.000000	4	54	mm	100.000000	275	551
Frame#	Time	RPSI			LPSI			L3			STRN			T10			C7			CLAV			RBAK			LBAK			LSHO			LUPA			LAEL			LAOL			LWTS			LWPS			LFRA			LIFD			LHPS			LHTS			RSHO			RUPA			RAEL			RAOL			RWTS			RWPS			RFRA			RIFD			RHTS			RHPS			RBHD			LFHD			RFHD			LBHD			LHIP			RHIP			RASI			LASI			LKNE			LTHI			LANK			LTIP			LTOE			LMT1			LMT5			LHEE			RKNE			RTHI			RANK			RTIP			RTOE			RMT1			RMT5			RHEE			*53			
		X1	Y1	Z1	X2	Y2	Z2	X3	Y3	Z3	X4	Y4	Z4	X5	Y5	Z5	X6	Y6	Z6	X7	Y7	Z7	X8	Y8	Z8	X9	Y9	Z9	X10	Y10	Z10	X11	Y11	Z11	X12	Y12	Z12	X13	Y13	Z13	X14	Y14	Z14	X15	Y15	Z15	X16	Y16	Z16	X17	Y17	Z17	X18	Y18	Z18	X19	Y19	Z19	X20	Y20	Z20	X21	Y21	Z21	X22	Y22	Z22	X23	Y23	Z23	X24	Y24	Z24	X25	Y25	Z25	X26	Y26	Z26	X27	Y27	Z27	X28	Y28	Z28	X29	Y29	Z29	X30	Y30	Z30	X31	Y31	Z31	X32	Y32	Z32	X33	Y33	Z33	X34	Y34	Z34	X35	Y35	Z35	X36	Y36	Z36	X37	Y37	Z37	X38	Y38	Z38	X39	Y39	Z39	X40	Y40	Z40	X41	Y41	Z41	X42	Y42	Z42	X43	Y43	Z43	X44	Y44	Z44	X45	Y45	Z45	X46	Y46	Z46	X47	Y47	Z47	X48	Y48	Z48	X49	Y49	Z49	X50	Y50	Z50	X51	Y51	Z51	X52	Y52	Z52	X53	Y53	Z53	X54	Y54	Z54	

276	2.75	-212.5591583251953	1053.422607421875	274.2449035644531	-206.9302215576172	1055.021850585938	150.5851135253906	-207.2950592041016	1093.817138671875	213.1652221679688	49.44429016113281	1302.616455078125	221.6648254394531	-237.8633575439453	1249.141845703125	200.4884796142578	-179.1538391113281	1520.036743164062	186.0008697509766	20.32483863830566	1415.275024414062	207.3406677246094	-249.5170135498047	1344.865844726562	293.1863708496094	-178.1096954345703	1492.04931640625	86.56500244140625	-96.89517974853516	1478.378051757812	13.19866943359375	-128.1636199951172	1343.713989257812	-56.22883224487305	-120.3988037109375	1128.749633789062	-66.42465209960938	-157.9936370849609	1113.0087890625	12.09998416900635	-7.650956630706787	896.7139282226562	-47.3249626159668	-93.60992431640625	875.4984130859375	-76.88385009765625	-108.6439208984375	1018.939331054688	-80.40694427490234	11.51679706573486	712.215576171875	-25.11552619934082	-71.54175567626953	805.5278930664062	-74.58945465087891	0.829608142375946	817.9638671875	-67.98544311523438	-129.7181854248047	1502.140747070312	370.8660583496094	-156.2951812744141	1440.077758789062	440.6276245117188	-186.9857635498047	1163.572021484375	521.2164916992188	-175.4166412353516	1141.3916015625	423.7362976074219	-51.4073486328125	938.7232055664062	562.6583251953125	-133.4635009765625	926.10693359375	591.7229614257812	-166.55908203125	1094.553100585938	552.3701171875	-33.88313293457031	752.5996704101562	563.539794921875	-28.18550491333008	848.3782348632812	591.5942993164062	-106.1467590332031	844.67822265625	608.0512084960938	-116.9914245605469	1681.979370117188	272.72705078125	42.63006973266602	1730.76708984375	134.6868591308594	49.12839508056641	1727.819213867188	264.2653503417969	-133.4972686767578	1694.337890625	135.9486236572266	-104.0378952026367	991.9872436523438	35.48329925537109	-66.43047332763672	1013.985290527344	407.98974609375	14.71050643920898	1042.244750976562	354.5755004882812	20.58379936218262	1031.15966796875	95.37992095947266	-32.83877563476562	487.5430603027344	37.64376449584961	-40.6214485168457	637.2202758789062	27.7122802734375	-383.5300598144531	149.7272338867188	41.66987228393555	-201.5328674316406	319.9906616210938	25.6258602142334	-195.4571533203125	45.94212341308594	55.19953536987305	-231.6558685302734	72.00981140136719	106.6134490966797	-301.6500244140625	80.78630828857422	3.384604692459106	-418.59521484375	183.4629669189453	113.511604309082	51.60721588134766	523.9071655273438	376.3146362304688	24.41231727600098	792.1810302734375	412.6570129394531	0.8940477967262268	36.10626220703125	379.656982421875	76.21817779541016	402.1890258789062	359.2550659179688	223.0016784667969	45.20785140991211	337.3584899902344	167.1742706298828	42.90945434570312	295.8082275390625	115.1326675415039	35.54245376586914	413.382080078125	-52.61210250854492	36.69429779052734	311.5843505859375	nan	nan	nan	
277	2.76	-219.3981170654297	1052.521362304688	272.3619384765625	-213.8912200927734	1054.006103515625	148.6250915527344	-214.2052612304688	1092.794067382812	211.0598449707031	42.5445556640625	1301.365600585938	219.7649536132812	-244.6910400390625	1247.943359375	197.9423065185547	-186.0349273681641	1518.864135742188	183.822998046875	13.41088199615479	1414.02197265625	205.5870513916016	-256.6371154785156	1343.48974609375	290.6004943847656	-184.6556549072266	1491.0107421875	84.33428955078125	-103.217643737793	1477.487426757812	11.19603252410889	-133.9649505615234	1342.869750976562	-58.52099609375	-125.4758605957031	1128.043090820312	-69.13916778564453	-163.5253448486328	1111.859130859375	9.081377029418945	-11.33487129211426	896.5950927734375	-49.62457275390625	-97.00222015380859	874.7979125976562	-79.64042663574219	-112.9478607177734	1018.131591796875	-83.21141052246094	9.12635612487793	712.2293090820312	-27.64567375183105	-74.43566131591797	804.9979858398438	-77.36157989501953	-2.159654378890991	817.9638671875	-70.39621734619141	-137.0803527832031	1500.632080078125	368.7868957519531	-163.8909759521484	1438.513793945312	438.3525085449219	-194.9310607910156	1161.86962890625	518.796142578125	-182.9208526611328	1139.860595703125	421.6661071777344	-58.31369781494141	937.8463745117188	560.7750854492188	-140.3848876953125	924.6915283203125	589.5608520507812	-174.2810974121094	1093.015502929688	550.27783203125	-39.59384918212891	751.8695678710938	561.5321044921875	-34.61406326293945	847.6611938476562	589.7137451171875	-112.5925674438477	843.4200439453125	605.919189453125	-124.6149673461914	1680.261474609375	271.2200927734375	35.53032302856445	1730.27783203125	134.3378448486328	41.42337417602539	1726.593505859375	263.9334106445312	-140.43505859375	1693.347290039062	134.4497680664062	-111.3594131469727	990.5394897460938	33.49365997314453	-72.95867156982422	1013.317138671875	405.7758483886719	8.115199089050293	1041.149658203125	352.02490234375	13.47104454040527	1029.609252929688	92.87339782714844	-48.21960067749023	485.8422546386719	37.06689834594727	-53.45297241210938	635.4395141601562	26.61210250854492	-398.8770446777344	147.7558746337891	39.72900390625	-216.8934326171875	318.2867736816406	24.18625068664551	-211.3182220458984	44.26082611083984	54.01904296875	-247.5654602050781	69.58065032958984	105.1884918212891	-317.1222839355469	78.48180389404297	1.664672374725342	-434.0093994140625	181.7674713134766	111.459831237793	48.83975601196289	524.1461181640625	374.6614990234375	19.21872138977051	792.0402221679688	410.5564270019531	0.8832951188087463	36.13628387451172	379.59619140625	74.23419189453125	402.5559997558594	357.8836364746094	223.0153198242188	45.51670455932617	337.3937072753906	167.1153869628906	42.88487243652344	295.8945007324219	115.123779296875	35.64693450927734	413.3367004394531	-52.61935043334961	36.62796783447266	311.5511474609375	nan	nan	nan	
278	2.77	-226.3797149658203	1051.601684570312	270.4508666992188	-221.0717010498047	1052.973510742188	146.6369781494141	-221.2988739013672	1091.758422851562	208.9199676513672	35.56131744384766	1300.01806640625	217.6881256103516	-251.623291015625	1246.733276367188	195.3503265380859	-192.9448547363281	1517.650512695312	181.5611114501953	6.436090469360352	1412.685180664062	203.6682434082031	-263.8077392578125	1342.10791015625	287.9583129882812	-191.2890930175781	1489.931518554688	82.01451110839844	-109.646484375	1476.543090820312	9.08095645904541	-139.9149017333984	1341.970336914062	-60.91062164306641	-130.6811065673828	1127.25634765625	-71.92539978027344	-169.1765441894531	1110.652221679688	5.99811840057373	-14.99218654632568	896.5139770507812	-51.94255447387695	-100.3438034057617	874.0516357421875	-82.39214324951172	-117.2836532592773	1017.260803222656	-86.11124420166016	6.948216915130615	712.3236694335938	-30.15181732177734	-77.21275329589844	804.4463500976562	-80.11534118652344	-5.053892135620117	818.0184326171875	-72.80183410644531	-144.4128112792969	1499.061279296875	366.606201171875	-171.4360504150391	1436.8740234375	435.9712219238281	-202.7454681396484	1160.101684570312	516.2890625	-190.4024658203125	1138.259399414062	419.4054870605469	-65.14714050292969	936.84033203125	558.568359375	-147.1918792724609	923.1714477539062	587.158935546875	-181.9105224609375	1091.373779296875	547.9873046875	-45.29655838012695	751.0050048828125	559.1592407226562	-40.96680450439453	846.8048706054688	587.46630859375	-118.9451599121094	842.0460815429688	603.5037231445312	-132.2181396484375	1678.483276367188	269.5884094238281	28.4362850189209	1729.681030273438	133.8430023193359	33.74219131469727	1725.265625	263.4471130371094	-147.3545227050781	1692.266235351562	132.8369750976562	-118.8655395507812	989.0590209960938	31.48737144470215	-79.57913208007812	1012.594604492188	403.4458312988281	1.398301601409912	1039.988037109375	349.3130798339844	6.0810227394104	1028.005493164062	90.22824096679688	-63.69392013549805	484.2540283203125	36.61222076416016	-66.40087127685547	633.6968994140625	25.5440845489502	-413.5772094726562	145.10986328125	37.82365417480469	-231.9914855957031	316.3486633300781	22.82535743713379	-226.3554382324219	42.79679107666016	52.89373397827148	-262.7503356933594	66.78977966308594	103.8342361450195	-331.7669982910156	75.70411682128906	-0.06779437512159348	-448.865966796875	179.3233795166016	109.4227523803711	45.92693710327148	524.3822631835938	372.9237060546875	13.89206981658936	791.8687133789062	408.294677734375	0.8576428294181824	36.1630973815918	379.53466796875	72.13294982910156	402.9364318847656	356.4462280273438	223.0010528564453	45.90064239501953	337.5374450683594	167.0489807128906	42.9051628112793	296.0408630371094	115.0947952270508	35.77426910400391	413.3038940429688	-52.63382339477539	36.54420852661133	311.4958801269531	nan	nan	nan	
279	2.78	-233.5187225341797	1050.6650390625	268.4992370605469	-228.4777679443359	1051.9248046875	144.6119995117188	-228.5809936523438	1090.711791992188	206.7361602783203	28.49069786071777	1298.577880859375	215.4283905029297	-258.6643676757812	1245.51025390625	192.7125854492188	-199.8892211914062	1516.400634765625	179.2174530029297	-0.5961864590644836	1411.270385742188	201.5790863037109	-271.0254516601562	1340.72607421875	285.2679138183594	-198.0180358886719	1488.816284179688	79.60740661621094	-116.1916809082031	1475.549926757812	6.852883338928223	-146.0301361083984	1341.021362304688	-63.39871215820312	-136.0252380371094	1126.382934570312	-74.77774810791016	-174.9638214111328	1109.396606445312	2.851467132568359	-18.64076232910156	896.4762573242188	-54.27288436889648	-103.6446228027344	873.2721557617188	-85.14099884033203	-121.6515045166016	1016.3359375	-89.11536407470703	4.924750328063965	712.507080078125	-32.62126922607422	-79.89138031005859	803.8854370117188	-82.84561157226562	-7.875607967376709	818.1329345703125	-75.19059753417969	-151.713134765625	1497.438232421875	364.3231506347656	-178.9220886230469	1435.170532226562	433.4833679199219	-210.4357299804688	1158.296020507812	513.6923217773438	-197.8464050292969	1136.600463867188	416.9422302246094	-71.91790771484375	935.7127685546875	556.0538330078125	-153.9087524414062	921.5553588867188	584.5111694335938	-189.4541625976562	1089.640258789062	545.487060546875	-51.00331115722656	750.0119018554688	556.43798828125	-47.26320648193359	845.8147583007812	584.8748168945312	-125.2248764038086	840.5641479492188	600.8046875	-139.7998199462891	1676.6455078125	267.835205078125	21.35900688171387	1728.971435546875	133.2002868652344	26.08393096923828	1723.83740234375	262.8057556152344	-154.2586975097656	1691.106323242188	131.1075592041016	-126.5620498657227	987.5296630859375	29.4725170135498	-86.30672454833984	1011.820129394531	400.9959106445312	-5.458962917327881	1038.758056640625	346.4444274902344	-1.584088444709778	1026.343017578125	87.44406127929688	-79.25250244140625	482.7588195800781	36.27046585083008	-79.44000244140625	631.9736938476562	24.5037956237793	-427.5508422851562	141.7298583984375	35.97439956665039	-246.7841949462891	314.1339721679688	21.56756782531738	-240.4474334716797	41.67279815673828	51.89857482910156	-277.0956420898438	63.70875930786133	102.6232604980469	-345.4575805664062	72.45272064208984	-1.770989298820496	-463.1209716796875	176.0585632324219	107.4154891967773	42.83420562744141	524.6201782226562	371.1268615722656	8.405121803283691	791.6751098632812	405.8771057128906	0.8122288584709167	36.18118667602539	379.4862060546875	69.88022613525391	403.3353576660156	354.9776306152344	222.9530639648438	46.41121292114258	337.8118591308594	166.9721984863281	43.01198577880859	296.2662963867188	115.033073425293	35.92826080322266	413.2909240722656	-52.66170501708984	36.43412780761719	311.4187316894531	nan	nan	nan	
